<?xml version="1.0" standalone="no"?>
<!DOCTYPE svg PUBLIC "-//W3C//DTD SVG 20010904//EN"
 "http://www.w3.org/TR/2001/REC-SVG-20010904/DTD/svg10.dtd">
<svg version="1.0" xmlns="http://www.w3.org/2000/svg"
 width="187.000000pt" height="148.000000pt" viewBox="0 0 187.000000 148.000000"
 preserveAspectRatio="xMidYMid meet">

<g transform="translate(0.000000,148.000000) scale(0.100000,-0.100000)"
fill="#000000" stroke="none">
<path d="M554 1445 c-29 -70 -59 -65 404 -65 377 0 420 -2 452 -18 19 -9 40
-28 47 -42 10 -19 13 -159 13 -592 l0 -568 25 0 c38 0 85 27 95 56 6 15 10
268 10 628 0 571 -1 604 -18 619 -17 15 -67 17 -516 17 l-497 0 -15 -35z"/>
<path d="M203 1233 c-22 -8 -15 -23 37 -83 28 -32 50 -62 50 -66 0 -5 -23 -35
-50 -67 -28 -32 -50 -65 -50 -72 0 -8 14 -17 33 -20 17 -3 236 -5 485 -3 389
3 454 5 462 18 15 23 13 273 -2 288 -9 9 -129 12 -483 11 -258 0 -476 -3 -482
-6z m542 -60 l18 -26 14 27 14 27 112 -3 c106 -3 112 -4 115 -25 3 -17 -2 -22
-25 -25 -28 -3 -28 -4 -31 -80 -3 -75 -4 -78 -27 -78 -27 0 -27 0 -29 115 -1
35 -4 40 -26 44 -14 1 -28 7 -31 13 -6 9 -49 -50 -49 -66 0 -4 14 -27 30 -51
17 -24 30 -46 30 -49 0 -3 -13 -6 -30 -6 -20 0 -35 8 -46 25 -9 14 -20 25 -23
25 -4 0 -14 -11 -21 -25 -10 -19 -21 -25 -47 -25 -18 0 -33 3 -33 6 0 3 14 25
30 49 17 24 30 50 30 57 0 17 -49 77 -50 61 0 -7 -11 -13 -25 -13 -25 0 -25
-1 -25 -80 l0 -80 -30 0 -30 0 0 80 0 80 -30 0 c-25 0 -30 4 -30 25 l0 25 114
0 c112 0 114 0 131 -27z"/>
<path d="M620 801 l-105 -6 -3 -33 c-5 -46 19 -52 228 -52 149 0 181 3 194 16
17 17 20 42 8 62 -10 15 -169 22 -322 13z"/>
<path d="M532 609 c-19 -7 -23 -15 -20 -41 l3 -33 395 0 395 0 3 30 c7 54 3
55 -392 54 -199 0 -371 -4 -384 -10z"/>
<path d="M514 406 c-3 -14 -4 -33 -2 -43 3 -17 24 -18 387 -21 275 -1 388 1
397 9 19 16 18 65 -2 73 -9 3 -186 6 -395 6 l-379 0 -6 -24z"/>
<path d="M711 242 c-112 -2 -179 -7 -188 -14 -8 -6 -13 -25 -11 -42 l3 -31
395 0 395 0 0 35 c0 27 -6 37 -25 47 -25 14 -33 14 -569 5z"/>
</g>
</svg>
